<svg width="25" height="24" viewBox="0 0 25 24" fill="none" xmlns="http://www.w3.org/2000/svg">
<path d="M14.4868 2.5886L16.5106 6.49216C16.7865 7.03556 17.5224 7.55677 18.1434 7.65658L21.8115 8.24433C24.1572 8.62138 24.7092 10.2627 23.0188 11.8817L20.1672 14.632C19.6842 15.0978 19.4197 15.996 19.5692 16.6392L20.3856 20.0437C21.0296 22.7385 19.5462 23.781 17.074 22.3726L13.6359 20.4097C13.0149 20.0548 11.9916 20.0548 11.3591 20.4097L7.92101 22.3726C5.46028 23.781 3.96544 22.7274 4.60937 20.0437L5.42578 16.6392C5.57527 15.996 5.3108 15.0978 4.82785 14.632L1.97616 11.8817C0.29735 10.2627 0.837791 8.62138 3.18353 8.24433L6.85163 7.65658C7.46106 7.55677 8.19698 7.03556 8.47295 6.49216L10.4967 2.5886C11.6006 0.470468 13.3944 0.470468 14.4868 2.5886Z" fill="#FFAD49" stroke="#FFAD49" stroke-width="1.5" stroke-linecap="round" stroke-linejoin="round"/>
</svg>
